<svg id="Capa_1" data-name="Capa 1" xmlns="http://www.w3.org/2000/svg" viewBox="0 0 26 38.45"><defs><style>.cls-1{fill:#da552f;}.cls-2{fill:none;}.cls-2,.cls-3{stroke:#da552f;stroke-linecap:square;stroke-miterlimit:8;stroke-width:2px;}.cls-3{fill:#fff;}</style></defs><path class="cls-1" d="M36,20.27a29.33,29.33,0,0,1-2.42,8.86,12.76,12.76,0,0,1-2.24,4.21c-1.12,1.22-3.54,7.36-7.36,7.4-3.23,0-4.45-3.15-6.11-5.87-1.2-2-3-4-3.32-4.59C12,26,9.94,6,24,6,30.63,6,35.89,10.5,36,20.27Z" transform="translate(-11 -5)"/><path class="cls-2" d="M24,42Q36,29.4,36,18a12,12,0,0,0-24,0Q12,29.4,24,42Z" transform="translate(-11 -5)"/><circle class="cls-3" cx="13" cy="13" r="3.91"/></svg>